<?xml version="1.0" encoding="UTF-8"?>
<svg xmlns="http://www.w3.org/2000/svg" xmlns:xlink="http://www.w3.org/1999/xlink" width="50px" height="52px" viewBox="0 0 50 52" version="1.1">
<g id="surface1">
<rect x="0" y="0" width="50" height="52" style="fill:rgb(0%,0%,100%);fill-opacity:1;stroke:none;"/>
<path style="fill-rule:nonzero;fill:rgb(100%,100%,100%);fill-opacity:1;stroke-width:1.5;stroke-linecap:butt;stroke-linejoin:miter;stroke:rgb(0%,0%,0%);stroke-opacity:1;stroke-miterlimit:4;" d="M 92.754063 0.744141 C 41.934062 0.744141 0.75625 41.042218 0.75625 90.746995 C 0.75625 140.451773 41.934062 180.74985 92.754063 180.74985 C 143.555156 180.74985 184.751875 140.451773 184.751875 90.746995 C 184.751875 41.042218 143.555156 0.744141 92.754063 0.744141 Z M 101.148438 142.588792 L 84.019375 142.588792 L 84.019375 126.503906 L 101.148438 126.503906 Z M 101.148438 109.350511 L 101.148438 114.654898 L 84.019375 114.654898 L 84.019375 108.110276 C 84.019375 88.361929 106.990469 85.232722 106.990469 71.189453 C 106.990469 64.778395 101.148438 59.8747 93.491406 59.8747 C 85.550781 59.8747 78.593281 65.598858 78.593281 65.598858 L 68.837656 53.74985 C 68.837656 53.74985 78.442031 43.942458 95.022813 43.942458 C 110.771719 43.942458 125.38625 53.463642 125.38625 69.548528 C 125.38625 92.044471 101.148438 94.639423 101.148438 109.350511 Z M 101.148438 109.350511 " transform="matrix(0.206612,0,0,0.204724,0,0)"/>
<path style="fill-rule:nonzero;fill:rgb(100%,100%,100%);fill-opacity:1;stroke-width:1.5;stroke-linecap:butt;stroke-linejoin:miter;stroke:rgb(0%,0%,0%);stroke-opacity:1;stroke-miterlimit:4;" d="M 222.072812 187.466196 L 241.054688 177.906851 C 240.695469 174.357873 239.958125 170.923377 239.069531 167.546124 L 217.970156 164.760367 C 216.155156 160.581731 213.735156 156.689303 210.899219 153.121244 L 218.953281 134.288762 C 216.306406 131.827374 213.451562 129.594952 210.445469 127.534255 L 192.54125 138.238431 C 188.344063 136.139573 183.806562 134.536809 179.061094 133.525541 L 172.595156 114.425931 C 170.76125 114.292368 168.927344 114.158804 167.055625 114.158804 C 165.183906 114.158804 163.35 114.292368 161.516094 114.425931 L 155.106875 133.353816 C 150.229062 134.346004 145.597031 135.967849 141.305312 138.085787 L 123.665781 127.534255 C 120.659687 129.594952 117.804844 131.827374 115.176875 134.288762 L 122.985156 152.60607 C 119.94125 156.326773 117.388906 160.429087 115.479375 164.855769 L 95.060625 167.546124 C 94.153125 170.923377 93.434687 174.357873 93.056562 177.906851 L 111.395625 187.141827 C 111.603594 192.007362 112.435469 196.720252 113.947969 201.146935 L 100.108594 215.724459 C 101.715625 218.891827 103.511719 221.982873 105.591406 224.864032 L 125.934531 220.704477 C 129.280937 224.158053 133.081094 227.191857 137.278281 229.710487 L 136.503125 249.535156 C 139.849531 250.985276 143.328281 252.18735 146.901562 253.141376 L 159.776719 237.380859 C 162.064375 237.647987 164.370937 237.838792 166.734219 237.838792 C 169.305469 237.838792 171.801094 237.609826 174.258906 237.285457 L 187.209688 253.160457 C 190.782969 252.18735 194.261719 250.985276 197.608125 249.554237 L 196.814063 229.347957 C 200.803281 226.886569 204.433281 223.948167 207.628437 220.609075 L 228.519844 224.883113 C 230.599531 221.982873 232.376719 218.910907 233.98375 215.724459 L 219.709531 200.689002 C 221.089687 196.491286 221.845937 192.045523 222.072812 187.466196 Z M 190.518281 210.439153 L 181.518906 216.029748 L 175.998281 207.920523 C 173.105625 208.969952 170.005 209.61869 166.734219 209.61869 C 152.46 209.61869 140.889375 198.590144 140.889375 185.004808 C 140.889375 171.400391 152.46 160.390925 166.734219 160.390925 C 181.008437 160.390925 192.579062 171.400391 192.579062 185.004808 C 192.579062 191.797476 189.686406 197.941406 185.016562 202.387169 Z M 190.518281 210.439153 " transform="matrix(0.206612,0,0,0.204724,0,0)"/>
</g>
</svg>
